<svg width="122.87" height="122.89" xmlns="http://www.w3.org/2000/svg" data-name="Layer 1">

 <title>google-tag-manager</title>
 <g>
  <title>Layer 1</title>
  <polygon id="svg_1" fill="#8ab4f8" points="72.13 118.22 50.8 96.86 96.63 50.56 118.35 72.28 72.13 118.22 72.13 118.22" class="cls-1"/>
  <path id="svg_2" fill="#4285f4" d="m72.29,26.23l-21.73,-21.73l-46.06,46.06a15.35,15.35 0 0 0 0,21.71l0,0l46.06,46.06l21.31,-21.4l-34.8,-35.48l35.22,-35.22z" class="cls-2"/>
  <path id="svg_3" fill="#8ab4f8" d="m118.35,50.56l-46.06,-46.06a15.36,15.36 0 0 0 -21.73,21.72l46.09,46.06a15.36,15.36 0 0 0 21.72,-21.72l-0.02,0z" class="cls-1"/>
  <path id="svg_4" fill="#246fdb" d="m76.48,107.66a15.23,15.23 0 1 0 -15.22,15.23a15.22,15.22 0 0 0 15.22,-15.23z" class="cls-3"/>
  <text transform="matrix(1 0 0 1 0 0)" font-style="normal" font-weight="bold" xml:space="preserve" text-anchor="start" font-family="monospace" font-size="128" id="svg_5" y="104.445" x="26.2475" stroke-width="0" stroke="#000" fill="#c60000">Я</text>
 </g>
</svg>